<svg width="67" height="54" viewBox="0 0 67 54" fill="none" xmlns="http://www.w3.org/2000/svg">
<g filter="url(#filter0_d_5_103)">
<path d="M28.1548 19.6378L27.1597 19.7365L27.2491 20.6378H28.1548V19.6378ZM24.3977 18.0398L24.7669 18.9692L24.7778 18.9647L24.3977 18.0398ZM23.6023 18.6151L22.8022 18.015L22.7949 18.025L23.6023 18.6151ZM23.3324 19.4531L24.3317 19.4895L24.3324 19.4713V19.4531H23.3324ZM23.4957 20.1349L22.6419 20.6556L22.6465 20.6631L22.6512 20.6705L23.4957 20.1349ZM24 20.6392L23.4453 21.4713L23.4518 21.4756L23.4583 21.4798L24 20.6392ZM24.7386 21.0014L24.3893 21.9384L24.3963 21.941L24.4033 21.9435L24.7386 21.0014ZM25.6335 21.2571L25.8661 20.2845L25.8591 20.2828L25.852 20.2813L25.6335 21.2571ZM26.9403 21.5696L26.7078 22.5422L26.7148 22.5439L26.7219 22.5454L26.9403 21.5696ZM28.6875 22.1378L28.2798 23.0509L28.6875 22.1378ZM30.0653 23.0114L30.7303 22.2645L30.0653 23.0114ZM30.9673 24.233L30.0569 24.6468L30.0604 24.6543L30.9673 24.233ZM31.3011 25.8452L32.3012 25.8505L32.3011 25.8374L31.3011 25.8452ZM30.6193 28.1605L29.7956 27.5935L29.7948 27.5947L30.6193 28.1605ZM28.6875 29.6733L29.0777 30.5941L29.0802 30.593L28.6875 29.6733ZM22.5866 29.6662L22.2031 30.5897L22.2049 30.5905L22.5866 29.6662ZM20.5554 28.0682L19.7284 28.6305L19.7328 28.6368L20.5554 28.0682ZM19.7955 25.4332V24.4332H18.7726L18.7957 25.4559L19.7955 25.4332ZM22.7713 25.4332L23.769 25.3654L23.7057 24.4332H22.7713V25.4332ZM23.1903 26.6548L22.3917 27.2567L22.3966 27.2632L22.4016 27.2696L23.1903 26.6548ZM24.1918 27.3864L23.8222 28.3157L23.8349 28.3205L24.1918 27.3864ZM26.9759 27.4006L26.6123 26.469L26.6084 26.4705L26.9759 27.4006ZM27.8778 26.7685L28.6627 27.3881L27.8778 26.7685ZM27.9062 25.0142L27.1447 25.6624L27.1527 25.6716L27.9062 25.0142ZM27.0682 24.446L26.6743 25.3652L26.6785 25.367L27.0682 24.446ZM25.7259 24.0199L25.4823 24.9898L25.4915 24.992L25.7259 24.0199ZM24.142 23.6222L24.3856 22.6522L24.3784 22.6505L24.142 23.6222ZM21.2372 22.223L20.571 22.9688L20.571 22.9688L21.2372 22.223ZM20.179 19.6591L21.179 19.6635L21.179 19.6537L20.179 19.6591ZM20.8821 17.3509L20.0731 16.763L20.0703 16.7669L20.8821 17.3509ZM28.517 15.8097L28.1 16.7186L28.102 16.7195L28.517 15.8097ZM30.4062 17.3509L29.5807 17.9151L29.5807 17.9151L30.4062 17.3509ZM31.1023 19.6378V20.6378H32.1188L32.1021 19.6214L31.1023 19.6378ZM29.1499 19.5391C29.0676 18.7084 28.6939 17.9963 28.0162 17.4973L26.8304 19.1078C27.0144 19.2433 27.1285 19.4213 27.1597 19.7365L29.1499 19.5391ZM28.0162 17.4973C27.359 17.0134 26.5416 16.8267 25.669 16.8267V18.8267C26.2738 18.8267 26.6258 18.9572 26.8304 19.1078L28.0162 17.4973ZM25.669 16.8267C25.0789 16.8267 24.5175 16.9094 24.0176 17.1148L24.7778 18.9647C24.9692 18.8861 25.2554 18.8267 25.669 18.8267V16.8267ZM24.0285 17.1104C23.5475 17.3015 23.1185 17.5934 22.8023 18.0151L24.4023 19.2151C24.4554 19.1443 24.5566 19.0527 24.7669 18.9691L24.0285 17.1104ZM22.7949 18.025C22.4865 18.447 22.3324 18.9341 22.3324 19.4531H24.3324C24.3324 19.3471 24.3582 19.2755 24.4097 19.2051L22.7949 18.025ZM22.333 19.4168C22.3175 19.8437 22.4072 20.2706 22.6419 20.6556L24.3495 19.6143C24.3475 19.6111 24.3283 19.5834 24.3317 19.4895L22.333 19.4168ZM22.6512 20.6705C22.8573 20.9954 23.1293 21.2606 23.4453 21.4713L24.5547 19.8072C24.4446 19.7337 24.3804 19.6627 24.3402 19.5994L22.6512 20.6705ZM23.4583 21.4798C23.7413 21.6622 24.054 21.8134 24.3893 21.9384L25.088 20.0644C24.8646 19.9811 24.6848 19.8909 24.5417 19.7986L23.4583 21.4798ZM24.4033 21.9435C24.7243 22.0578 25.062 22.1539 25.4151 22.2329L25.852 20.2813C25.5706 20.2183 25.3116 20.1439 25.074 20.0593L24.4033 21.9435ZM25.4009 22.2297L26.7078 22.5422L27.1729 20.597L25.8661 20.2845L25.4009 22.2297ZM26.7219 22.5454C27.2989 22.6746 27.8171 22.8443 28.2798 23.0509L29.0952 21.2246C28.4973 20.9578 27.8507 20.7487 27.1588 20.5938L26.7219 22.5454ZM28.2798 23.0509C28.7272 23.2506 29.0973 23.4884 29.4004 23.7583L30.7303 22.2645C30.2569 21.843 29.7084 21.4984 29.0952 21.2246L28.2798 23.0509ZM29.4004 23.7583C29.6856 24.0121 29.9022 24.3062 30.057 24.6468L31.8777 23.8192C31.6064 23.2222 31.2216 22.7019 30.7303 22.2645L29.4004 23.7583ZM30.0604 24.6543C30.2085 24.973 30.2974 25.3654 30.3012 25.853L32.3011 25.8374C32.2954 25.1128 32.1618 24.4304 31.8742 23.8116L30.0604 24.6543ZM30.3012 25.8399C30.2973 26.5548 30.118 27.1252 29.7956 27.5935L31.443 28.7275C32.0202 27.889 32.2955 26.9159 32.3011 25.8505L30.3012 25.8399ZM29.7948 27.5947C29.4738 28.0624 28.9923 28.4558 28.2948 28.7536L29.0802 30.593C30.0683 30.1711 30.8746 29.5559 31.4439 28.7263L29.7948 27.5947ZM28.2974 28.7525C27.6138 29.0422 26.7429 29.206 25.6548 29.206V31.206C26.9341 31.206 28.0851 31.0146 29.0776 30.594L28.2974 28.7525ZM25.6548 29.206C24.5805 29.206 23.6928 29.0411 22.9684 28.7419L22.2049 30.5905C23.2229 31.011 24.3807 31.206 25.6548 31.206V29.206ZM22.9702 28.7427C22.2638 28.4493 21.7462 28.0323 21.378 27.4995L19.7328 28.6368C20.3399 29.5151 21.1766 30.1634 22.2031 30.5897L22.9702 28.7427ZM21.3823 27.5059C21.0294 26.9869 20.8155 26.3067 20.7952 25.4106L18.7957 25.4559C18.8228 26.6526 19.1154 27.729 19.7285 28.6305L21.3823 27.5059ZM19.7955 26.4332H22.7713V24.4332H19.7955V26.4332ZM21.7736 25.501C21.8173 26.144 22.0076 26.747 22.3917 27.2567L23.9889 26.053C23.8806 25.9092 23.7916 25.6978 23.769 25.3654L21.7736 25.501ZM22.4016 27.2696C22.7724 27.7453 23.2571 28.0908 23.8222 28.3156L24.5613 26.4572C24.2931 26.3505 24.1102 26.2083 23.9791 26.0401L22.4016 27.2696ZM23.8349 28.3205C24.3883 28.5319 24.988 28.6278 25.6193 28.6278V26.6278C25.19 26.6278 24.838 26.5628 24.5486 26.4522L23.8349 28.3205ZM25.6193 28.6278C26.2342 28.6278 26.8165 28.5387 27.3433 28.3306L26.6084 26.4705C26.3682 26.5654 26.0461 26.6278 25.6193 26.6278V28.6278ZM27.3394 28.3321C27.8582 28.1297 28.3182 27.8245 28.6627 27.3881L27.093 26.1488C27.0113 26.2522 26.87 26.3684 26.6123 26.469L27.3394 28.3321ZM28.6627 27.3881C29.018 26.9381 29.1974 26.4087 29.1974 25.8381H27.1974C27.1974 25.9682 27.1639 26.059 27.093 26.1488L28.6627 27.3881ZM29.1974 25.8381C29.1974 25.2973 29.0301 24.7813 28.6598 24.3568L27.1527 25.6716C27.1707 25.6922 27.1974 25.7255 27.1974 25.8381H29.1974ZM28.6678 24.3661C28.347 23.9891 27.9201 23.7206 27.4578 23.5251L26.6785 25.367C26.9549 25.4839 27.0867 25.5942 27.1447 25.6623L28.6678 24.3661ZM27.4621 23.5269C27.0308 23.342 26.5264 23.1842 25.9602 23.0477L25.4915 24.992C25.9859 25.1112 26.3764 25.2375 26.6743 25.3652L27.4621 23.5269ZM25.9694 23.05L24.3856 22.6523L23.8985 24.592L25.4823 24.9898L25.9694 23.05ZM24.3784 22.6505C23.2618 22.3789 22.4578 21.9724 21.9034 21.4773L20.571 22.9688C21.4371 23.7425 22.5697 24.2689 23.9057 24.5938L24.3784 22.6505ZM21.9034 21.4773C21.4355 21.0592 21.1753 20.493 21.179 19.6635L19.179 19.6547C19.1732 20.9748 19.6185 22.1179 20.571 22.9688L21.9034 21.4773ZM21.179 19.6537C21.1753 18.9652 21.3546 18.4064 21.6939 17.9348L20.0703 16.7669C19.4626 17.6116 19.1732 18.5916 19.179 19.6645L21.179 19.6537ZM21.6911 17.9387C22.0538 17.4396 22.5625 17.0306 23.2546 16.7239L22.4443 14.8954C21.4697 15.3273 20.6669 15.9459 20.0731 16.763L21.6911 17.9387ZM23.2546 16.7239C23.9412 16.4196 24.7467 16.2557 25.6903 16.2557V14.2557C24.5128 14.2557 23.4244 14.4611 22.4443 14.8954L23.2546 16.7239ZM25.6903 16.2557C26.6568 16.2557 27.4513 16.4209 28.1 16.7186L28.9341 14.9008C27.9729 14.4598 26.883 14.2557 25.6903 14.2557V16.2557ZM28.102 16.7195C28.7657 17.0222 29.2453 17.4244 29.5807 17.9151L31.2318 16.7866C30.6676 15.961 29.8877 15.3357 28.9321 14.8998L28.102 16.7195ZM29.5807 17.9151C29.9104 18.3975 30.0911 18.9656 30.1024 19.6542L32.1021 19.6214C32.085 18.577 31.8018 17.6205 31.2318 16.7866L29.5807 17.9151ZM31.1023 18.6378H28.1548V20.6378H31.1023V18.6378Z" fill="url(#paint0_linear_5_103)"/>
</g>
<path d="M42.7188 21.0653C42.6733 20.6619 42.4858 20.3494 42.1562 20.1278C41.8267 19.9034 41.4119 19.7912 40.9119 19.7912C40.554 19.7912 40.2443 19.848 39.983 19.9616C39.7216 20.0724 39.5185 20.2259 39.3736 20.4219C39.2315 20.6151 39.1605 20.8352 39.1605 21.0824C39.1605 21.2898 39.2088 21.4687 39.3054 21.6193C39.4048 21.7699 39.5341 21.8963 39.6932 21.9986C39.8551 22.098 40.0284 22.1818 40.2131 22.25C40.3977 22.3153 40.5753 22.3693 40.7457 22.4119L41.598 22.6335C41.8764 22.7017 42.1619 22.794 42.4545 22.9105C42.7472 23.027 43.0185 23.1804 43.2685 23.3707C43.5185 23.5611 43.7202 23.7969 43.8736 24.0781C44.0298 24.3594 44.108 24.696 44.108 25.0881C44.108 25.5824 43.9801 26.0213 43.7244 26.4048C43.4716 26.7884 43.1037 27.0909 42.6207 27.3125C42.1406 27.5341 41.5597 27.6449 40.8778 27.6449C40.2244 27.6449 39.6591 27.5412 39.1818 27.3338C38.7045 27.1264 38.331 26.8324 38.0611 26.4517C37.7912 26.0682 37.642 25.6136 37.6136 25.0881H38.9347C38.9602 25.4034 39.0625 25.6662 39.2415 25.8764C39.4233 26.0838 39.6548 26.2386 39.9361 26.3409C40.2202 26.4403 40.5312 26.4901 40.8693 26.4901C41.2415 26.4901 41.5724 26.4318 41.8622 26.3153C42.1548 26.196 42.3849 26.0312 42.5526 25.821C42.7202 25.608 42.804 25.3594 42.804 25.0753C42.804 24.8168 42.7301 24.6051 42.5824 24.4403C42.4375 24.2756 42.2401 24.1392 41.9901 24.0312C41.7429 23.9233 41.4631 23.8281 41.1506 23.7457L40.1193 23.4645C39.4205 23.2741 38.8665 22.9943 38.4574 22.625C38.0511 22.2557 37.848 21.767 37.848 21.1591C37.848 20.6562 37.9844 20.2173 38.2571 19.8423C38.5298 19.4673 38.8991 19.1761 39.3651 18.9688C39.831 18.7585 40.3565 18.6534 40.9418 18.6534C41.5327 18.6534 42.054 18.7571 42.5057 18.9645C42.9602 19.1719 43.3182 19.4574 43.5795 19.821C43.8409 20.1818 43.9773 20.5966 43.9886 21.0653H42.7188ZM46.8533 23.6136V27.5H45.5792V18.7727H46.8363V22.0199H46.9173C47.0707 21.6676 47.305 21.3878 47.6204 21.1804C47.9357 20.973 48.3477 20.8693 48.8562 20.8693C49.305 20.8693 49.6971 20.9616 50.0323 21.1463C50.3704 21.331 50.6317 21.6065 50.8164 21.973C51.0039 22.3366 51.0977 22.7912 51.0977 23.3366V27.5H49.8235V23.4901C49.8235 23.0099 49.6999 22.6378 49.4528 22.3736C49.2056 22.1065 48.8619 21.973 48.4215 21.973C48.1204 21.973 47.8505 22.0369 47.6119 22.1648C47.3761 22.2926 47.19 22.4801 47.0536 22.7273C46.9201 22.9716 46.8533 23.267 46.8533 23.6136ZM55.555 27.6321C54.9414 27.6321 54.4059 27.4915 53.9485 27.2102C53.4911 26.929 53.136 26.5355 52.8832 26.0298C52.6303 25.5241 52.5039 24.9332 52.5039 24.2571C52.5039 23.5781 52.6303 22.9844 52.8832 22.4759C53.136 21.9673 53.4911 21.5724 53.9485 21.2912C54.4059 21.0099 54.9414 20.8693 55.555 20.8693C56.1687 20.8693 56.7042 21.0099 57.1616 21.2912C57.619 21.5724 57.9741 21.9673 58.2269 22.4759C58.4798 22.9844 58.6062 23.5781 58.6062 24.2571C58.6062 24.9332 58.4798 25.5241 58.2269 26.0298C57.9741 26.5355 57.619 26.929 57.1616 27.2102C56.7042 27.4915 56.1687 27.6321 55.555 27.6321ZM55.5593 26.5625C55.957 26.5625 56.2866 26.4574 56.5479 26.2472C56.8093 26.0369 57.0025 25.7571 57.1275 25.4077C57.2553 25.0582 57.3192 24.6733 57.3192 24.2528C57.3192 23.8352 57.2553 23.4517 57.1275 23.1023C57.0025 22.75 56.8093 22.4673 56.5479 22.2543C56.2866 22.0412 55.957 21.9347 55.5593 21.9347C55.1587 21.9347 54.8263 22.0412 54.5621 22.2543C54.3008 22.4673 54.1062 22.75 53.9783 23.1023C53.8533 23.4517 53.7908 23.8352 53.7908 24.2528C53.7908 24.6733 53.8533 25.0582 53.9783 25.4077C54.1062 25.7571 54.3008 26.0369 54.5621 26.2472C54.8263 26.4574 55.1587 26.5625 55.5593 26.5625ZM60.0284 29.9545V20.9545H61.2727V22.0156H61.3793C61.4531 21.8793 61.5597 21.7216 61.6989 21.5426C61.8381 21.3636 62.0313 21.2074 62.2784 21.0739C62.5256 20.9375 62.8523 20.8693 63.2585 20.8693C63.7869 20.8693 64.2585 21.0028 64.6733 21.2699C65.0881 21.5369 65.4134 21.9219 65.6491 22.4247C65.8878 22.9276 66.0071 23.5327 66.0071 24.2401C66.0071 24.9474 65.8892 25.554 65.6534 26.0597C65.4176 26.5625 65.0938 26.9503 64.6818 27.223C64.2699 27.4929 63.7997 27.6278 63.2713 27.6278C62.8736 27.6278 62.5483 27.5611 62.2955 27.4276C62.0455 27.294 61.8494 27.1378 61.7074 26.9588C61.5653 26.7798 61.456 26.6207 61.3793 26.4815H61.3026V29.9545H60.0284ZM61.277 24.2273C61.277 24.6875 61.3438 25.0909 61.4773 25.4375C61.6108 25.7841 61.804 26.0554 62.0568 26.2514C62.3097 26.4446 62.6193 26.5412 62.9858 26.5412C63.3665 26.5412 63.6847 26.4403 63.9403 26.2386C64.196 26.0341 64.3892 25.7571 64.5199 25.4077C64.6534 25.0582 64.7202 24.6648 64.7202 24.2273C64.7202 23.7955 64.6548 23.4077 64.5241 23.0639C64.3963 22.7202 64.2031 22.4489 63.9446 22.25C63.6889 22.0511 63.3693 21.9517 62.9858 21.9517C62.6165 21.9517 62.304 22.0469 62.0483 22.2372C61.7955 22.4276 61.6037 22.6932 61.473 23.0341C61.3423 23.375 61.277 23.7727 61.277 24.2273Z" fill="white"/>
<defs>
<filter id="filter0_d_5_103" x="0.79541" y="0.255676" width="49.5059" height="52.9503" filterUnits="userSpaceOnUse" color-interpolation-filters="sRGB">
<feFlood flood-opacity="0" result="BackgroundImageFix"/>
<feColorMatrix in="SourceAlpha" type="matrix" values="0 0 0 0 0 0 0 0 0 0 0 0 0 0 0 0 0 0 127 0" result="hardAlpha"/>
<feOffset dy="4"/>
<feGaussianBlur stdDeviation="9.5"/>
<feComposite in2="hardAlpha" operator="out"/>
<feColorMatrix type="matrix" values="0 0 0 0 0 0 0 0 0 0 0 0 0 0 0 0 0 0 0.25 0"/>
<feBlend mode="normal" in2="BackgroundImageFix" result="effect1_dropShadow_5_103"/>
<feBlend mode="normal" in="SourceGraphic" in2="effect1_dropShadow_5_103" result="shape"/>
</filter>
<linearGradient id="paint0_linear_5_103" x1="21.581" y1="16.8909" x2="31.0626" y2="29.9243" gradientUnits="userSpaceOnUse">
<stop stop-color="#F14240"/>
<stop offset="1" stop-color="#F575D1"/>
</linearGradient>
</defs>
</svg>
